<?xml version="1.0" encoding="utf-8"?>
<!-- Generator: Adobe Illustrator 23.0.0, SVG Export Plug-In . SVG Version: 6.00 Build 0)  -->
<svg version="1.1" id="Layer_1" xmlns="http://www.w3.org/2000/svg" xmlns:xlink="http://www.w3.org/1999/xlink" x="0px" y="0px"
	 viewBox="0 0 1024 1024" style="enable-background:new 0 0 1024 1024;" xml:space="preserve">
<style type="text/css">
	.st0{fill:url(#SVGID_1_);}
	.st1{fill:url(#SVGID_2_);}
	.st2{fill:#FFFFFF;}
	.st3{fill:url(#SVGID_3_);}
	.st4{fill:url(#SVGID_4_);}
	.st5{fill:url(#SVGID_5_);}
	.st6{fill:url(#SVGID_6_);}
	.st7{fill:url(#SVGID_7_);}
	.st8{fill:url(#SVGID_8_);}
	.st9{fill:url(#SVGID_9_);}
	.st10{fill:url(#SVGID_10_);}
</style>
<g>
	<linearGradient id="SVGID_1_" gradientUnits="userSpaceOnUse" x1="513.4591" y1="413.1472" x2="495.1914" y2="1650.7792">
		<stop  offset="0" style="stop-color:#58C7FF"/>
		<stop  offset="0.2483" style="stop-color:#57C4FF"/>
		<stop  offset="0.398" style="stop-color:#53BCFF"/>
		<stop  offset="0.5216" style="stop-color:#4DAEFF"/>
		<stop  offset="0.631" style="stop-color:#4499FF"/>
		<stop  offset="0.7309" style="stop-color:#387FFF"/>
		<stop  offset="0.824" style="stop-color:#2A5FFF"/>
		<stop  offset="0.9118" style="stop-color:#1938FF"/>
		<stop  offset="0.9933" style="stop-color:#060DFF"/>
		<stop  offset="1" style="stop-color:#0409FF"/>
	</linearGradient>
	<rect class="st0" width="1024" height="1024"/>
	<g>
		<linearGradient id="SVGID_2_" gradientUnits="userSpaceOnUse" x1="510.9625" y1="282.1907" x2="513.8509" y2="1056.2827">
			<stop  offset="0" style="stop-color:#1F5AAE"/>
			<stop  offset="0.2006" style="stop-color:#2056A8"/>
			<stop  offset="0.4686" style="stop-color:#214997"/>
			<stop  offset="0.7732" style="stop-color:#24357B"/>
			<stop  offset="1" style="stop-color:#262262"/>
		</linearGradient>
		<path class="st1" d="M782.4,369.3c0,0,48.2-81.9,14.3-129.2C762.7,192.8,670,221.3,670,221.3s-11.6-17.8-53.5-20.5
			c-41.9-2.7-104.4,26.8-104.4,26.8s-62.5-29.4-104.4-26.8c-41.9,2.7-53.5,20.5-53.5,20.5s-92.8-28.5-126.7,18.7
			c-33.9,47.3,14.3,129.2,14.3,129.2s-71.4,163.4-53.5,210.7c17.8,47.3,106.9,161.2,156,204c0,0-5-24.7-3.9-34.2
			c0,0,55.9,76.5,171.8,112.2c115.9-35.7,171.8-112.2,171.8-112.2c1.1,9.5-3.9,34.2-3.9,34.2c49.1-42.8,138.1-156.8,156-204
			C853.7,532.6,782.4,369.3,782.4,369.3z"/>
		<g>
			<path class="st2" d="M616.1,441.2c-32,0-57.1-17.3-57.1-39.4c0-4.3,3.5-7.7,7.7-7.7s7.7,3.5,7.7,7.7c0,13,19.1,23.9,41.6,23.9
				s41.6-10.9,41.6-23.9c0-4.3,3.5-7.7,7.7-7.7s7.7,3.5,7.7,7.7C673.2,423.9,648.2,441.2,616.1,441.2z"/>
		</g>
		<g>
			<path class="st2" d="M407.9,441.2c-32,0-57.1-17.3-57.1-39.4c0-4.3,3.5-7.7,7.7-7.7s7.7,3.5,7.7,7.7c0,13,19.1,23.9,41.6,23.9
				s41.6-10.9,41.6-23.9c0-4.3,3.5-7.7,7.7-7.7s7.7,3.5,7.7,7.7C465,423.9,439.9,441.2,407.9,441.2z"/>
		</g>
		<linearGradient id="SVGID_3_" gradientUnits="userSpaceOnUse" x1="520.379" y1="465.4286" x2="518.1002" y2="711.5359">
			<stop  offset="0" style="stop-color:#FFFFFF"/>
			<stop  offset="0.3835" style="stop-color:#FDFDFE"/>
			<stop  offset="0.5217" style="stop-color:#F6F6F9"/>
			<stop  offset="0.6202" style="stop-color:#EBEAF0"/>
			<stop  offset="0.6998" style="stop-color:#DADAE4"/>
			<stop  offset="0.768" style="stop-color:#C5C4D5"/>
			<stop  offset="0.8284" style="stop-color:#AAA8C1"/>
			<stop  offset="0.8831" style="stop-color:#8A88AA"/>
			<stop  offset="0.9333" style="stop-color:#656290"/>
			<stop  offset="0.978" style="stop-color:#3D3972"/>
			<stop  offset="1" style="stop-color:#262262"/>
		</linearGradient>
		<path class="st3" d="M628.8,553.4c-6.1-41-38.5-98.7-109.3-98.7c-70.8,0-103.2,57.7-109.3,98.7c-6.1,41,13.9,70.4,48.3,70.4
			c34.4,0,61-37.7,61-37.7s26.6,37.7,61,37.7C614.9,623.9,634.9,594.4,628.8,553.4z"/>
		<linearGradient id="SVGID_4_" gradientUnits="userSpaceOnUse" x1="519.6622" y1="524.3448" x2="518.5295" y2="609.2943">
			<stop  offset="0" style="stop-color:#49636F"/>
			<stop  offset="0.3466" style="stop-color:#3D4E57"/>
			<stop  offset="1" style="stop-color:#231F20"/>
		</linearGradient>
		<path class="st4" d="M568.6,528.2c-20.7-14.3-49.2-12.5-49.2-12.5s-28.5-1.8-49.2,12.5c-4.8,3.3-7.4,8.9-6.9,14.7
			c1.3,15.4,9.7,45.4,56.1,45.4c46.4,0,54.9-30,56.1-45.4C576,537.2,573.4,531.5,568.6,528.2z"/>
		<linearGradient id="SVGID_5_" gradientUnits="userSpaceOnUse" x1="517.9752" y1="563.3683" x2="520.5657" y2="721.3917">
			<stop  offset="0" style="stop-color:#FFFFFF"/>
			<stop  offset="0.3835" style="stop-color:#FDFDFE"/>
			<stop  offset="0.5217" style="stop-color:#F6F6F9"/>
			<stop  offset="0.6202" style="stop-color:#EBEAF0"/>
			<stop  offset="0.6998" style="stop-color:#DADAE4"/>
			<stop  offset="0.768" style="stop-color:#C5C4D5"/>
			<stop  offset="0.8284" style="stop-color:#AAA8C1"/>
			<stop  offset="0.8831" style="stop-color:#8A88AA"/>
			<stop  offset="0.9333" style="stop-color:#656290"/>
			<stop  offset="0.978" style="stop-color:#3D3972"/>
			<stop  offset="1" style="stop-color:#262262"/>
		</linearGradient>
		<path class="st5" d="M541.4,631.5c-11-6.1-22-18.1-22-18.1s-11,11.9-22,18.1c-11,6.1-32.9,7.4-31.9,21.6c1,14.2,22,32.2,53.9,32.2
			s52.9-18.1,53.9-32.2C574.3,638.9,552.4,637.7,541.4,631.5z"/>
	</g>
</g>
</svg>
